<svg width="22" height="22" viewBox="0 0 22 22" fill="none" xmlns="http://www.w3.org/2000/svg">
<path d="M18.5408 2.77917C18.3453 2.97467 18.029 2.97345 17.825 2.7869C15.9335 1.05769 13.4198 0 10.6533 0C4.76 0 0 4.77333 0 10.6667C0 16.56 4.76 21.3333 10.6533 21.3333C15.3944 21.3333 19.4004 18.2352 20.7809 13.9526C20.8811 13.6418 20.6421 13.3333 20.3155 13.3333H18.54C18.3282 13.3333 18.1408 13.4675 18.0614 13.6638C16.8748 16.5967 14.0151 18.6667 10.6533 18.6667C6.23333 18.6667 2.65333 15.0867 2.65333 10.6667C2.65333 6.24667 6.23333 2.66667 10.6533 2.66667C12.6803 2.66667 14.516 3.44291 15.9228 4.69056C16.1293 4.87379 16.1284 5.19163 15.9331 5.38689L12.8402 8.47978C12.5252 8.79476 12.7483 9.33333 13.1938 9.33333H20.82C21.0961 9.33333 21.32 9.10948 21.32 8.83333V1.20711C21.32 0.761653 20.7814 0.538571 20.4664 0.853553L18.5408 2.77917Z" fill="black"/>
</svg>
