<svg width="25" height="26" viewBox="0 0 25 26" fill="none" xmlns="http://www.w3.org/2000/svg">
<path d="M23.4717 10.3919H22.2754C21.9531 10.3919 21.5771 10.0871 21.4502 9.72651C21.3379 9.39129 21.2012 9.06114 21.0498 8.73608C20.8887 8.39578 20.9473 7.90311 21.1768 7.66439L22.0312 6.77554C22.627 6.15589 22.627 5.14515 22.0312 4.52549L20.6494 3.0881C20.3613 2.78844 19.9756 2.62082 19.5654 2.62082C19.1553 2.62082 18.7695 2.78336 18.4814 3.0881L17.6318 3.97695C17.4951 4.11916 17.2656 4.20551 17.0215 4.20551C16.8701 4.20551 16.7236 4.17503 16.6016 4.10901C16.2939 3.95155 15.9717 3.81442 15.6494 3.69252C15.3027 3.56554 15.0098 3.16937 15.0098 2.83415V1.58976C15.0098 0.716155 14.3213 0 13.4766 0H11.5234C10.6787 0 9.99512 0.716155 9.99512 1.58976V2.83415C9.99512 3.16937 9.70215 3.56554 9.35547 3.69252C9.0332 3.80934 8.71094 3.95155 8.40332 4.10393C8.28125 4.16488 8.13477 4.20043 7.9834 4.20043C7.73926 4.20043 7.50977 4.11408 7.37305 3.97187L6.52344 3.0881C6.23535 2.78844 5.84961 2.62082 5.43945 2.62082C5.0293 2.62082 4.64355 2.78844 4.35547 3.0881L2.96875 4.53057C2.68066 4.83024 2.51953 5.23149 2.51953 5.65814C2.51953 6.08478 2.68066 6.48095 2.96875 6.78062L3.82324 7.66947C4.05273 7.90819 4.11133 8.40086 3.95508 8.74116C3.80371 9.06622 3.67188 9.39637 3.55469 9.73159C3.43262 10.0922 3.05176 10.397 2.72949 10.397H1.5332C0.688477 10.3919 0 11.108 0 11.9867V14.0184C0 14.897 0.688477 15.6081 1.52832 15.6081H2.72461C3.04688 15.6081 3.42773 15.9129 3.5498 16.2735C3.66211 16.6087 3.79883 16.9389 3.9502 17.2639C4.11133 17.6042 4.04785 18.0969 3.81836 18.3356L2.96387 19.2245C2.36816 19.8441 2.36816 20.8549 2.96387 21.4745L4.35059 22.917C4.63867 23.2166 5.02441 23.3843 5.43457 23.3843C5.84473 23.3843 6.22559 23.2166 6.51855 22.917L7.37305 22.0281C7.50977 21.8859 7.73926 21.7996 7.9834 21.7996C8.13477 21.7996 8.28125 21.83 8.40332 21.8961C8.71094 22.0535 9.0332 22.1907 9.35547 22.3075C9.70215 22.4345 9.99512 22.8306 9.99512 23.1659V24.4102C9.99512 25.2889 10.6836 26 11.5234 26H13.4766C14.3213 26 15.0098 25.2838 15.0098 24.4102V23.1659C15.0098 22.8306 15.3027 22.4345 15.6494 22.3075C15.9717 22.1907 16.2939 22.0484 16.6016 21.8961C16.7188 21.8351 16.8701 21.7996 17.0215 21.7996C17.2656 21.7996 17.4951 21.8859 17.6318 22.0281L18.4814 22.917C18.7695 23.2166 19.1553 23.3843 19.5654 23.3843C19.9756 23.3843 20.3564 23.2166 20.6494 22.917L22.0312 21.4745C22.627 20.8549 22.627 19.8441 22.0312 19.2245L21.1816 18.3407C20.9521 18.102 20.8936 17.6093 21.0547 17.269C21.2061 16.949 21.3379 16.6138 21.4502 16.2786C21.5723 15.918 21.9531 15.6132 22.2754 15.6132H23.4717C24.3164 15.6132 25 14.8971 25 14.0234V11.9867C25 11.108 24.3115 10.3919 23.4717 10.3919ZM12.5 17.6702C10.0244 17.6702 8.0127 15.5777 8.0127 13.0025C8.0127 10.4325 10.0244 8.33483 12.5 8.33483C14.9756 8.33483 16.9873 10.4274 16.9873 13.0025C16.9873 15.5726 14.9756 17.6702 12.5 17.6702Z" fill="black"/>
</svg>
